<mxfile host="65bd71144e">
    <diagram id="c0fuQhvkB5b11NbSvcqr" name="Page-1">
        <mxGraphModel dx="1926" dy="741" grid="1" gridSize="10" guides="1" tooltips="1" connect="1" arrows="1" fold="1" page="1" pageScale="1" pageWidth="827" pageHeight="1169" math="0" shadow="0">
            <root>
                <mxCell id="0"/>
                <mxCell id="1" parent="0"/>
                <mxCell id="rrSLAIhXQGccz7Z7sFX4-44" style="edgeStyle=none;shape=connector;rounded=1;orthogonalLoop=1;jettySize=auto;html=1;exitX=0;exitY=0.5;exitDx=0;exitDy=0;entryX=1;entryY=0.57;entryDx=0;entryDy=0;entryPerimeter=0;labelBackgroundColor=default;fontFamily=Helvetica;fontSize=11;fontColor=default;endArrow=none;endFill=0;strokeColor=default;" parent="1" source="rrSLAIhXQGccz7Z7sFX4-2" target="rrSLAIhXQGccz7Z7sFX4-7" edge="1">
                    <mxGeometry relative="1" as="geometry">
                        <Array as="points">
                            <mxPoint x="630" y="520"/>
                            <mxPoint x="450" y="520"/>
                        </Array>
                    </mxGeometry>
                </mxCell>
                <mxCell id="rrSLAIhXQGccz7Z7sFX4-2" value="" style="pointerEvents=1;verticalLabelPosition=bottom;shadow=0;dashed=0;align=center;html=1;verticalAlign=top;shape=mxgraph.electrical.miscellaneous.batteryStack;direction=north;" parent="1" vertex="1">
                    <mxGeometry x="600" y="200" width="60" height="100" as="geometry"/>
                </mxCell>
                <mxCell id="rrSLAIhXQGccz7Z7sFX4-3" style="html=1;exitX=1;exitY=0.5;exitDx=0;exitDy=0;exitPerimeter=0;entryX=0;entryY=0.57;entryDx=0;entryDy=0;entryPerimeter=0;endArrow=none;endFill=0;" parent="1" source="rrSLAIhXQGccz7Z7sFX4-5" target="rrSLAIhXQGccz7Z7sFX4-7" edge="1">
                    <mxGeometry relative="1" as="geometry"/>
                </mxCell>
                <mxCell id="rrSLAIhXQGccz7Z7sFX4-5" value="" style="pointerEvents=1;verticalLabelPosition=bottom;shadow=0;dashed=0;align=center;html=1;verticalAlign=top;shape=mxgraph.electrical.resistors.resistor_2;direction=east;" parent="1" vertex="1">
                    <mxGeometry x="150" y="510" width="96" height="20" as="geometry"/>
                </mxCell>
                <mxCell id="rrSLAIhXQGccz7Z7sFX4-7" value="" style="verticalLabelPosition=bottom;shadow=0;dashed=0;align=center;html=1;verticalAlign=top;shape=mxgraph.electrical.opto_electronics.led_2;pointerEvents=1;direction=west;flipV=1;flipH=1;" parent="1" vertex="1">
                    <mxGeometry x="271" y="480" width="100" height="70" as="geometry"/>
                </mxCell>
                <mxCell id="rrSLAIhXQGccz7Z7sFX4-8" value="5 V" style="text;html=1;align=center;verticalAlign=middle;resizable=0;points=[];autosize=1;strokeColor=none;fillColor=none;fontSize=11;fontFamily=Helvetica;fontColor=default;" parent="1" vertex="1">
                    <mxGeometry x="660" y="230" width="30" height="20" as="geometry"/>
                </mxCell>
                <mxCell id="rrSLAIhXQGccz7Z7sFX4-9" value="220&amp;nbsp;&amp;nbsp;Î©" style="text;html=1;align=center;verticalAlign=middle;resizable=0;points=[];autosize=1;strokeColor=none;fillColor=none;fontSize=11;fontFamily=Helvetica;fontColor=default;" parent="1" vertex="1">
                    <mxGeometry x="183" y="480" width="50" height="20" as="geometry"/>
                </mxCell>
                <mxCell id="rrSLAIhXQGccz7Z7sFX4-10" value="Output" style="text;html=1;align=center;verticalAlign=middle;resizable=0;points=[];autosize=1;strokeColor=none;fillColor=none;fontSize=11;fontFamily=Helvetica;fontColor=default;" parent="1" vertex="1">
                    <mxGeometry x="281" y="550" width="50" height="20" as="geometry"/>
                </mxCell>
                <mxCell id="rrSLAIhXQGccz7Z7sFX4-11" value="&lt;font style=&quot;font-size: 14px&quot;&gt;Nina Mathew&lt;br&gt;TEJ3M Unit #4-08&lt;br&gt;OR Gate with Transistor&lt;br&gt;&lt;/font&gt;" style="text;html=1;align=center;verticalAlign=middle;resizable=0;points=[];autosize=1;strokeColor=none;fillColor=none;fontSize=11;fontFamily=Helvetica;fontColor=default;" parent="1" vertex="1">
                    <mxGeometry x="-115" y="155" width="170" height="50" as="geometry"/>
                </mxCell>
                <mxCell id="rrSLAIhXQGccz7Z7sFX4-40" style="edgeStyle=none;shape=connector;rounded=0;orthogonalLoop=1;jettySize=auto;html=1;exitX=0;exitY=0.885;exitDx=0;exitDy=0;exitPerimeter=0;entryX=1;entryY=0.5;entryDx=0;entryDy=0;entryPerimeter=0;labelBackgroundColor=default;fontFamily=Helvetica;fontSize=11;fontColor=default;endArrow=none;endFill=0;strokeColor=default;" parent="1" source="rrSLAIhXQGccz7Z7sFX4-14" target="rrSLAIhXQGccz7Z7sFX4-21" edge="1">
                    <mxGeometry relative="1" as="geometry"/>
                </mxCell>
                <mxCell id="rrSLAIhXQGccz7Z7sFX4-45" style="edgeStyle=none;shape=connector;rounded=1;orthogonalLoop=1;jettySize=auto;html=1;exitX=1;exitY=0.115;exitDx=0;exitDy=0;exitPerimeter=0;labelBackgroundColor=default;fontFamily=Helvetica;fontSize=11;fontColor=default;endArrow=none;endFill=0;strokeColor=#CC0000;" parent="1" source="rrSLAIhXQGccz7Z7sFX4-14" edge="1">
                    <mxGeometry relative="1" as="geometry">
                        <mxPoint x="460" y="200" as="targetPoint"/>
                        <Array as="points">
                            <mxPoint x="460" y="270"/>
                        </Array>
                    </mxGeometry>
                </mxCell>
                <mxCell id="rrSLAIhXQGccz7Z7sFX4-48" style="edgeStyle=none;shape=connector;rounded=1;orthogonalLoop=1;jettySize=auto;html=1;exitX=1;exitY=0.885;exitDx=0;exitDy=0;exitPerimeter=0;labelBackgroundColor=default;fontFamily=Helvetica;fontSize=11;fontColor=default;endArrow=none;endFill=0;strokeColor=default;" parent="1" source="rrSLAIhXQGccz7Z7sFX4-14" edge="1">
                    <mxGeometry relative="1" as="geometry">
                        <mxPoint x="430" y="520" as="targetPoint"/>
                        <Array as="points">
                            <mxPoint x="460" y="290"/>
                            <mxPoint x="460" y="413"/>
                            <mxPoint x="430" y="413"/>
                        </Array>
                    </mxGeometry>
                </mxCell>
                <mxCell id="rrSLAIhXQGccz7Z7sFX4-14" value="" style="pointerEvents=1;verticalLabelPosition=bottom;shadow=0;dashed=0;align=center;html=1;verticalAlign=top;shape=mxgraph.electrical.electro-mechanical.2-way_switch;direction=east;" parent="1" vertex="1">
                    <mxGeometry x="310" y="270" width="75" height="26" as="geometry"/>
                </mxCell>
                <mxCell id="rrSLAIhXQGccz7Z7sFX4-15" value="+" style="text;html=1;align=center;verticalAlign=middle;resizable=0;points=[];autosize=1;strokeColor=none;fillColor=none;" parent="1" vertex="1">
                    <mxGeometry x="640" y="190" width="20" height="20" as="geometry"/>
                </mxCell>
                <mxCell id="rrSLAIhXQGccz7Z7sFX4-16" value="-" style="text;html=1;align=center;verticalAlign=middle;resizable=0;points=[];autosize=1;strokeColor=none;fillColor=none;" parent="1" vertex="1">
                    <mxGeometry x="640" y="290" width="20" height="20" as="geometry"/>
                </mxCell>
                <mxCell id="rrSLAIhXQGccz7Z7sFX4-39" style="edgeStyle=none;shape=connector;rounded=1;orthogonalLoop=1;jettySize=auto;html=1;exitX=0.7;exitY=0;exitDx=0;exitDy=0;exitPerimeter=0;labelBackgroundColor=default;fontFamily=Helvetica;fontSize=11;fontColor=default;endArrow=none;endFill=0;strokeColor=#CC0000;entryX=1;entryY=0.5;entryDx=0;entryDy=0;startArrow=none;startFill=0;" parent="1" source="rrSLAIhXQGccz7Z7sFX4-18" target="rrSLAIhXQGccz7Z7sFX4-2" edge="1">
                    <mxGeometry relative="1" as="geometry">
                        <mxPoint x="160" y="190" as="targetPoint"/>
                        <Array as="points">
                            <mxPoint x="80" y="200"/>
                        </Array>
                    </mxGeometry>
                </mxCell>
                <mxCell id="8" style="edgeStyle=none;html=1;exitX=0.7;exitY=1;exitDx=0;exitDy=0;exitPerimeter=0;endArrow=none;endFill=0;strokeColor=#000000;" edge="1" parent="1" source="rrSLAIhXQGccz7Z7sFX4-18">
                    <mxGeometry relative="1" as="geometry">
                        <mxPoint x="90" y="520" as="targetPoint"/>
                        <Array as="points">
                            <mxPoint x="40" y="340"/>
                            <mxPoint x="40" y="520"/>
                        </Array>
                    </mxGeometry>
                </mxCell>
                <mxCell id="rrSLAIhXQGccz7Z7sFX4-18" value="" style="verticalLabelPosition=bottom;shadow=0;dashed=0;align=center;html=1;verticalAlign=top;shape=mxgraph.electrical.transistors.npn_transistor_1;direction=east;rotation=-180;flipV=1;" parent="1" vertex="1">
                    <mxGeometry x="50" y="240" width="100" height="100" as="geometry"/>
                </mxCell>
                <mxCell id="rrSLAIhXQGccz7Z7sFX4-19" style="edgeStyle=none;shape=connector;rounded=1;html=1;exitX=0;exitY=0.5;exitDx=0;exitDy=0;exitPerimeter=0;entryX=0;entryY=0.5;entryDx=0;entryDy=0;entryPerimeter=0;labelBackgroundColor=default;fontFamily=Helvetica;fontSize=11;fontColor=default;endArrow=none;endFill=0;strokeColor=default;" parent="1" source="rrSLAIhXQGccz7Z7sFX4-21" target="rrSLAIhXQGccz7Z7sFX4-18" edge="1">
                    <mxGeometry relative="1" as="geometry"/>
                </mxCell>
                <mxCell id="rrSLAIhXQGccz7Z7sFX4-21" value="" style="pointerEvents=1;verticalLabelPosition=bottom;shadow=0;dashed=0;align=center;html=1;verticalAlign=top;shape=mxgraph.electrical.resistors.resistor_2;" parent="1" vertex="1">
                    <mxGeometry x="183" y="280" width="96" height="20" as="geometry"/>
                </mxCell>
                <mxCell id="rrSLAIhXQGccz7Z7sFX4-22" value="&lt;span style=&quot;font-size: 11px&quot;&gt;4.7 K Î©&lt;/span&gt;" style="text;html=1;align=center;verticalAlign=middle;resizable=0;points=[];autosize=1;strokeColor=none;fillColor=none;" parent="1" vertex="1">
                    <mxGeometry x="190" y="250" width="50" height="20" as="geometry"/>
                </mxCell>
                <mxCell id="rrSLAIhXQGccz7Z7sFX4-23" value="Input A" style="text;html=1;align=center;verticalAlign=middle;resizable=0;points=[];autosize=1;strokeColor=none;fillColor=none;fontSize=11;fontFamily=Helvetica;fontColor=default;" parent="1" vertex="1">
                    <mxGeometry x="331" y="240" width="50" height="20" as="geometry"/>
                </mxCell>
                <mxCell id="rrSLAIhXQGccz7Z7sFX4-24" value="NPN Transistor" style="text;html=1;align=center;verticalAlign=middle;resizable=0;points=[];autosize=1;strokeColor=none;fillColor=none;fontSize=11;fontFamily=Helvetica;fontColor=default;" parent="1" vertex="1">
                    <mxGeometry x="-35" y="276" width="90" height="20" as="geometry"/>
                </mxCell>
                <mxCell id="rrSLAIhXQGccz7Z7sFX4-43" style="edgeStyle=none;shape=connector;rounded=1;orthogonalLoop=1;jettySize=auto;html=1;exitX=0.7;exitY=1;exitDx=0;exitDy=0;exitPerimeter=0;entryX=0;entryY=0.5;entryDx=0;entryDy=0;entryPerimeter=0;labelBackgroundColor=default;fontFamily=Helvetica;fontSize=11;fontColor=default;endArrow=none;endFill=0;strokeColor=default;" parent="1" source="rrSLAIhXQGccz7Z7sFX4-29" target="rrSLAIhXQGccz7Z7sFX4-5" edge="1">
                    <mxGeometry relative="1" as="geometry">
                        <Array as="points">
                            <mxPoint x="80" y="520"/>
                        </Array>
                    </mxGeometry>
                </mxCell>
                <mxCell id="7" style="edgeStyle=none;html=1;exitX=0.7;exitY=0;exitDx=0;exitDy=0;exitPerimeter=0;endArrow=none;endFill=0;strokeColor=#CC0000;" edge="1" parent="1" source="rrSLAIhXQGccz7Z7sFX4-29">
                    <mxGeometry relative="1" as="geometry">
                        <mxPoint x="480" y="360" as="targetPoint"/>
                    </mxGeometry>
                </mxCell>
                <mxCell id="rrSLAIhXQGccz7Z7sFX4-29" value="" style="verticalLabelPosition=bottom;shadow=0;dashed=0;align=center;html=1;verticalAlign=top;shape=mxgraph.electrical.transistors.npn_transistor_1;direction=east;rotation=-180;flipV=1;" parent="1" vertex="1">
                    <mxGeometry x="50" y="360" width="100" height="100" as="geometry"/>
                </mxCell>
                <mxCell id="rrSLAIhXQGccz7Z7sFX4-30" style="edgeStyle=none;shape=connector;rounded=1;html=1;exitX=0;exitY=0.5;exitDx=0;exitDy=0;exitPerimeter=0;entryX=0;entryY=0.5;entryDx=0;entryDy=0;entryPerimeter=0;labelBackgroundColor=default;fontFamily=Helvetica;fontSize=11;fontColor=default;endArrow=none;endFill=0;strokeColor=default;" parent="1" source="rrSLAIhXQGccz7Z7sFX4-31" target="rrSLAIhXQGccz7Z7sFX4-29" edge="1">
                    <mxGeometry relative="1" as="geometry"/>
                </mxCell>
                <mxCell id="rrSLAIhXQGccz7Z7sFX4-31" value="" style="pointerEvents=1;verticalLabelPosition=bottom;shadow=0;dashed=0;align=center;html=1;verticalAlign=top;shape=mxgraph.electrical.resistors.resistor_2;" parent="1" vertex="1">
                    <mxGeometry x="183" y="400" width="96" height="20" as="geometry"/>
                </mxCell>
                <mxCell id="rrSLAIhXQGccz7Z7sFX4-32" value="&lt;span style=&quot;font-size: 11px&quot;&gt;4.7 K Î©&lt;/span&gt;" style="text;html=1;align=center;verticalAlign=middle;resizable=0;points=[];autosize=1;strokeColor=none;fillColor=none;" parent="1" vertex="1">
                    <mxGeometry x="190" y="370" width="50" height="20" as="geometry"/>
                </mxCell>
                <mxCell id="rrSLAIhXQGccz7Z7sFX4-41" style="edgeStyle=none;shape=connector;rounded=0;orthogonalLoop=1;jettySize=auto;html=1;exitX=0;exitY=0.885;exitDx=0;exitDy=0;exitPerimeter=0;entryX=1;entryY=0.5;entryDx=0;entryDy=0;entryPerimeter=0;labelBackgroundColor=default;fontFamily=Helvetica;fontSize=11;fontColor=default;endArrow=none;endFill=0;strokeColor=default;" parent="1" source="rrSLAIhXQGccz7Z7sFX4-34" target="rrSLAIhXQGccz7Z7sFX4-31" edge="1">
                    <mxGeometry relative="1" as="geometry"/>
                </mxCell>
                <mxCell id="rrSLAIhXQGccz7Z7sFX4-49" style="edgeStyle=none;shape=connector;rounded=1;orthogonalLoop=1;jettySize=auto;html=1;exitX=1;exitY=0.115;exitDx=0;exitDy=0;exitPerimeter=0;labelBackgroundColor=default;fontFamily=Helvetica;fontSize=11;fontColor=default;endArrow=none;endFill=0;strokeColor=#CC0000;" parent="1" source="rrSLAIhXQGccz7Z7sFX4-34" edge="1">
                    <mxGeometry relative="1" as="geometry">
                        <mxPoint x="480" y="200" as="targetPoint"/>
                        <Array as="points">
                            <mxPoint x="480" y="393"/>
                        </Array>
                    </mxGeometry>
                </mxCell>
                <mxCell id="rrSLAIhXQGccz7Z7sFX4-53" style="edgeStyle=none;shape=connector;rounded=1;orthogonalLoop=1;jettySize=auto;html=1;exitX=1;exitY=0.885;exitDx=0;exitDy=0;exitPerimeter=0;labelBackgroundColor=default;fontFamily=Helvetica;fontSize=11;fontColor=default;endArrow=none;endFill=0;strokeColor=#000000;" parent="1" source="rrSLAIhXQGccz7Z7sFX4-34" edge="1">
                    <mxGeometry relative="1" as="geometry">
                        <mxPoint x="450" y="413" as="targetPoint"/>
                    </mxGeometry>
                </mxCell>
                <mxCell id="rrSLAIhXQGccz7Z7sFX4-34" value="" style="pointerEvents=1;verticalLabelPosition=bottom;shadow=0;dashed=0;align=center;html=1;verticalAlign=top;shape=mxgraph.electrical.electro-mechanical.2-way_switch;direction=east;" parent="1" vertex="1">
                    <mxGeometry x="330" y="390" width="75" height="26" as="geometry"/>
                </mxCell>
                <mxCell id="rrSLAIhXQGccz7Z7sFX4-54" value="NPN Transistor" style="text;html=1;align=center;verticalAlign=middle;resizable=0;points=[];autosize=1;strokeColor=none;fillColor=none;fontSize=11;fontFamily=Helvetica;fontColor=default;" parent="1" vertex="1">
                    <mxGeometry x="-50" y="393" width="90" height="20" as="geometry"/>
                </mxCell>
                <mxCell id="rrSLAIhXQGccz7Z7sFX4-55" value="Input B" style="text;html=1;align=center;verticalAlign=middle;resizable=0;points=[];autosize=1;strokeColor=none;fillColor=none;fontSize=11;fontFamily=Helvetica;fontColor=default;" parent="1" vertex="1">
                    <mxGeometry x="342.5" y="360" width="50" height="20" as="geometry"/>
                </mxCell>
                <mxCell id="9" value="" style="shape=image;verticalLabelPosition=bottom;labelBackgroundColor=#ffffff;verticalAlign=top;aspect=fixed;imageAspect=0;image=data:image/png,iVBORw0KGgoAAAANSUhEUgAAARQAAAD3CAIAAABTtTy2AAAgAElEQVR4nO29V3Ac15X/32Gme3pyzgEZA4BEYqZImmAwKMoStVrZWnvlWleta+2qLdeW921f9n2rXLsP66q131y21y6bsmXaNEWKEsUEMAEgMgZxMMBgck49PZ1+D/e/KP4ZIHIIcADqfp5Qg5nu07fv94Zz7z0HFUURgUAgLw5WawMgkJ0KFA8EUiVQPBBIlUDxQCBVAsUDgVQJFA8EUiVQPBBIlUDxQCBVAsUDgVSJZON//+lPf3o1dkAg25Curq76+vpn/RfdeHuOVqvdApMgkJ3BT37yk+9///vP+u+X9DzZbPb48ePvvvvuZlsFgWxrxsbGfvOb3zAMs8F3vkQ8CIL09PT8y7/8y+ZZBYHsAD766KPz589v/B3oMIBAqgSKBwKpEigeCKRKoHggkCqB4oFAqgSKBwKpEigeCKRKoHggkCqB4oFAqgSKBwKpki/fnrNZMAxD0zRN0zzPIwiC4zhJkkqlUiKRYBiGIIggCDzPFwoFhmE4jnv0tyiKUhRFUZRMJkNR9Fm3EASB47hisVgsFtc/lEqlMplMoVDgOL7Bb9fheb5SqZTLZZlMRpIksG0r4DiOZVmGYWQymVQqZVmW4zhRFCmKwjCM47hKpSIIglwu39hyURQrlUqpVHqy3AAkSYLSw3F8i57lMcCLoGkax3G5XI6i6LPsF0WR5/lyuczzvFwul0gkz/OOtgmvTjwzMzODg4O3b9+OxWIoippMpu7u7nfeecfhcKhUKgRBSqVSNBq9cOHCyMhILBYTBGH9tyRJHjly5I033jh8+LBE8kyby+VyMBj8y1/+8sknn6x/WF9fv2fPnrfffttoNJIkubGRgiCk0+m5ubmBgYGDBw/29vbKZLKtqHOCIITD4aWlpcnJyX379jU3N8/NzUWjUZqmDx8+rNFo1tbWpqeny+XyiRMnTCbTs55aFEWO4+bm5q5duzY6Orq6uvrYF1AU7erqOnjw4MmTJ9Vq9avRTz6fD4VCt2/fNhqNJ0+epChKKpU+9ZvlcjmVSt2/fz8Wi506dcrhcMhksldg4aaw5eIRBCGbzfr9/pmZmUgkolKpQDnK5fJsNvvFF190dXV5vV61Ws1xXKFQWFpaCgaDGo2GoihQ13me53l+eXlZq9U2Njbq9XqKop68USKR8Pv9IyMjq6urarWaoihQ4VAUjUQiIyMjHR0dHo8Hw7CN2zaGYeLx+PT0dENDw1Mb8k0BRVGJREJRlFarJUmS47hkMhkMBguFQnd3t0KhyGazq6urhUKBpumNj42gKEoQhFartVgslUqFpunV1dVkMllfX28wGORyudFoVCqVW9eFPgmGYQRBaDQacN8NCpzneWDwysrKwYMHwahkp7Dl4uE4bnV19fz58zzPu93u73//+y6XSxTFSCRy69at//mf/4nFYhRFNTc3IwiCoqhcLt+zZ8+HH37o8Xh0Oh2CIOVyORqN/vznP5+fn5+fn/d6vU8Vz+Li4o0bNy5dunTq1Kkf/ehHVqtVLpeLonj37t2HDx9+9tlnCILY7XaCILbDwABFUZvNZrPZ9u3bh6JoJpOpziogwtbW1paWFgRBSqVSJBL585//fP/+/Q8//LC3t9dqtYKvbfIDbIhKpVKpVA0NDduhqLeOLRdPMpmMRqMcx7W0tBw4cECv14MRsFar3bVr17e+9a1SqfTw4UOj0fiYJNYHygRBqNVql8uVTCZTqRRN04/dguO4crns8/mi0eiZM2f2799vNptJkgRXcLlcqVRqeno6m81mMhlgQKlUun79+ujoaDAY5HlepVLt2bNn165ddXV1X3zxxbVr1+7cuVOpVNLp9KlTpywWC8dx9+7dGx0d9fl8giDY7fa33367qanJYDA8akkul1tcXEylUqIo9vT0qNXqcrl8/fr1dDrd09PjdDqVSmU0Gl1eXvb7/Q0NDTiOLy0t2Ww2nud/85vfLC4ugut0dnYqlUoEQbLZ7LVr1+Lx+NLSktPp7O7uPn78uFwuf3IUBMpqvdDQR0D+b0g8MTExOztL07RCobBarQcPHlSr1cvLy7dv356YmEAQRKlUWiyWEydOtLW1aTSaycnJpaUllmVjsVgoFEqlUmq12uv1HjhwoLm5Gcfx+fn50dHR4eHheDyOIEhvb29vb29PTw/P89FodGRkRKfTHTx4UCKRxGKxu3fvTk9Pr6ysIAjS3t5+9OhRl8sVj8c/+eST27dvR6NRBEFOnDhx9OhRhmHAQDQWi/E873A4Dhw4cPDgQZlMBh5kdHR0aWmJpmmNRuN0Og8ePGi1WjcYz28RW36/WCwG+haPx+P1etefUC6XO53OQ4cO3bx5c25ubu/evc8ajqMoiuM4QRASiYTn+SfHMJVKJZPJBIPBYrF49uzZtrY2MIkCGI3G+vr6pqYmnU4niqIgCLlcbmlpaWJiYnp6OpFIlMtlgiAYhsFx3GAwpNPpTCZTKBTS6XQqlWJZNpPJxOPx8fHxiYkJcJdIJAJkI5fLCYJYt5xl2WQyubi4WCqVGhsbZTJZPp8fHx8PhUJ6vV6tVpMkGYlEFhcXZ2dnJRKJKIr37t3r7u7W6XTJZDKRSOA4nslkisUiGLmtra0pFIpIJDI/Px8KhViWdblcdXV1er3+hd5CpVJJJBIjIyMDAwNardZut0ul0nQ6ncvl7t+/Pz4+vrCwgOM4hmF+v99isWi1WpVKtba2Njw8nM1mS6USTdOhUAhF0UAgoNVqwTTM7/c/ePBgbm4unU4jCCKVSimKamhoEEUxHo8PDQ05nc6enp5cLhcIBEZHRxcWFoAeRFFUqVQkSdI0nUqlstlsPp9PJBLgXouLi8PDww8fPszn82CQQpKkwWCoq6urVCqxWOz+/ftjY2Nardblcsnl8kql8kKlsVlsuXjW1tbi8bjb7TabzVKp9NF+HMdxhUJRqVTi8XgikXjqYAxBEJZlc7nc6upqqVTS6XRPTihpmg6Hw6VSiSAIs9n8qHIQBJHJZE1NTTabjSAIkiQFQZifn7948aLJZPrggw92795dKBQWFhY+/fTTtbU1hmHeeOMNjUYjkUj6+/tPnjxpsVimp6dv3bpF03RfX9/Ro0dDodDExMRnn33G87zVajWbzeuWy2Qyl8sVjUbT6TTDMOVyuVAoYBgmkUhKpRLLsjzPZzIZHMebm5u1Wm0+n0dR1GAw7N69+zvf+c7y8jJN0+fOnbPZbGtra/Pz89PT06dOnXrzzTdJkrx06VIymbx+/fqpU6deVDyAcrkslUrffffd7u5ui8USj8fHxsbu3r37xhtv/Ou//qtCoZienh4cHIzH4/Pz842NjQiCVCqVSCSyb9++M2fOZLPZBw8enD9/3u/3OxwOFEWDwSCGYT/60Y9cLheCILdv3y4UCtFoVC6Xr99UFEW/3+/3++Vy+Xe/+92Ojo5SqTQ5OTk8PNzR0eF2u99//321Wh0MBj/44IPGxsZKpXL9+vVwONzX19fZ2SmXy69fv55MJi9evPjuu++CB6dpWqVSffvb325ra7NYLMAhWUWBvCRbLh7ggZVKpU96ISUSiVKpBDN70CeIolgulxcWFn7+85+DST+4AsuyGIa1tLQ0NDSo1erHbiEIAsuyMpkMwzCFQiGVSgVByOfz8/Pz9+/fz2az5XIZQZA9e/bs3bsXtLtHjx41GAwWi8XpdBYKBZZlwb1EUVQoFBqNRqFQaLVajUYjCEIkEpmbm/N6vY2NjR6PR6PRsCw7PDwM7vJoPZZIJMA80H0RBFEoFGw2m0QiAWNOhUIRjUYFQaivr8dxPJ/Pg1/J5XKdTpfL5QqFArg7giBqtdpmszmdzrq6OoqiQG0uFossy1b3LqRSqVKptNvtdrtdq9WiKNrW1oZhmNfrbW5uJggin8/bbLZiscgwDOjhpVKp0Wh0Op319fWglwCNIGjsWZZFUdRsNtfV1eE4zrJsoVAwm82POVoYhqlUKhiG6fX6uro68LJAv6FUKnU6nVqtViqVer2eJMlMJgMGll1dXS0tLQRBZDKZ+/fvLy0txeNx0HQCb4TT6bRarRqNprrSeHle9TDxUXAcB+sPYH4CPqxUKqurq9PT08A7xLIsWC74wQ9+0NXV5fF4ntXGkCSJ4zhYNRIEoVQqzc/PX7p0KRQKJRKJfD7/3e9+1+l0qlQqt9tttVrT6TRN04FAANQJQRCe9EcJggB8qaFQqLGxsVwu+/1+sIgBGtd8Pv9oRQF9KYZhNE1ns1mpVJrNZq1Wq0wmW15eTqfTGo0mGo1qtVqHw5HL5TYuH7PZjOO4zWZTqVQ4jpvNZjCArLrAQZVVKpWgwPV6vVKpdDqdpVJpbW0NQZBYLMay7KMDY5IknU4naN2lUqnBYHA4HMCHBhbQcByPRqMEQUilUovF0tjYSJJkKpV67L5g8SqVSvn9fgRBlErl8ePHpVIpTdOPNqmVSqVYLKIoqtFoGhoagDBaWloWFhZGR0dzuVypVAJLYaIoKpVKgiCqLo2Xp5bieSrA23b8+HGLxSKVSldXV4eHh30+3+7du91u9wbem3w+D0ZKPM+TJKnX6/v6+rxeb7FYXFxcvHr1qsfjAd/MZrPLy8u//OUvh4eHEQRZn0cB595TKZVKv/vd737729+Clo+m6Xg83tfX19HR8eiAG6wJGgwGk8nE83w8Hg8Gg06nU61WYxhWqVSA6xnU4FKptHFRKJVKQRBkMhnomV+kFJ+OQqEAjn7QAHEct7y8fPXq1aGhIeCroGmaYZjDhw83NTWBn0gkEp1OB3rCRwED1Eqlkkwmf/azn0UiEQzD3nnnnb6+vl27dj36TRRFm5ubZTJZJBIBQz4EQY4dO/ad73zH6XQ+1hSyLJvP58FYF3wCilSpVIJlbvAhmC9t0RLc87Pl4tHpdCqVKpVK5XI5nucf9fqzLJvNZjmOI0lSoVCQJMkwjEQiMRgMXV1ddXV1crk8FosRBFGpVPL5fDgc1uv1j02cEAQBqxwYhpVKpXQ6bTQaweYAq9VqtVorlYparZ6ZmVEoFIIggJ7t9u3bpVIJdPqCINA0nUwmn+WuAT0kmO6D9XLweVdXl81me3QOBhzHJpPJ5XKVy2VgT0NDA0mSJEnm8/lIJAIaTqVS+Vjz/CQSiQR4I1D0SyKEPSfgguudczQaXVxcXFxclEqlLS0tGIYBh+SjTwRWbJ507oE+1uPxlMvlfD6v0+mAJ8bn8+n1+sfqNHCWdnV18TxPEATHccB7KYqi2Wx+9NFAAQLXBfgEjOfBWt/6N8Gbes4tI1vHlovHbrcnEomBgYH6+nqGYcDgCkEQML0Jh8MMw6hUKp1OJ5fLHxvJkCTpcrmampqWlpbGx8cZhqmvrwc7eh79mkwms1qtwCsVjUYtFotOp1sv1vXSF0VRFEWapufn5z/99NNz58698cYbzc3NlUplcXHx17/+9ZOzKYBUKjWZTO+8886ePXtsNhuoyoIgoCj61BVAo9FYV1cXDAYTiQTDMEB4FEWl0+l0Oi2VSrVarUKhePWu1UcRBMHv9y8uLnIc99577504cUIqlc7Ozt6/fz+RSDzPFURRBM1TX18faJV++9vfLiwsmM1mk8n02L30ev2JEydOnjwpCEKhUPjiiy8+/vhjnU73mCzBrEyhUBAEAd4X+D7osR/ddLId2PL3B+blYE1AJpPt27fPYDCIopjNZicnJ//4xz9aLJaenh6dTvesLtjtdh85cuSTTz6JRCKBQMDtdj82vpJKpQqFwuv15vP5Tz75JJ/Py+VyrVYLBsTLy8v37t27ceMGjuN79+598vrhcBisPzzqIwJgGCaTyQwGg9FoXFlZ0Wg0FoulWCwuLS1dvXrV5XIdOHAArMY++iuCIAiCAOIBm/FUKpXH45meno5Go16vFyxcbit4nmdZFpSVTqdzu90bfz+fzz98+LBYLAqCsGfPHuA1IQgCdKpgEAG+KYriyMhIJpNRq9X19fU2mw1BELC7AriLgDsHQBCEQqHgOC4Wi01NTXV0dMhksomJiWQyaTQaDQaDSqUqFApbVgwvxpaLR6VS2e12r9ebSCQmJiaKxSJY/iuVSqFQCIyd2tvblUrlswLMGQyGtrY2sOHt4cOHUqkUTKDXm3wMw0iSbGlpKZVKt2/f9vv9N2/eXN+es7q66vf7jUajxWLRaDQymUylUlkslmAwODAwALzDYBlXFEWWZUHfyHFcMBhcWFhobm42mUxerzccDj98+LBUKgG/+fj4uFQqBb96zGCwD7VYLILpDagQZrN5eno6l8uZTKbHGmYEQVAUJUmyVCotLCwsLi7yPL/VrSyKosDHxTDM9PQ0mFwFAgGwL7ZSqTx1SW2d9QHw2tpaNpsFu6uy2axer9fr9QRBPDqIAO/a5/MFAgGDwUDTdCKR8Hg8er1eLpeDJy0UCnNzc8AjZ7fbA4HAgwcPYrEYEA+Kop2dnRaLZVvtfNty8eA47nK5vvnNbw4ODl69evU3v/lNJBJBUdRqte7du/eDDz5obW21WCwSieRZ4pFKpRqNZteuXQ8ePPjkk0+Aj/LR6SOgsbHRaDS2trZeunTpv/7rvyKRCJiRNzY2Hjx48N///d/r6+v1ej2GYR6PZ9++fb///e8nJiZwHD9z5kxPT4/dbler1UDbwAt0/fr1YDD4D//wDw6HQ6PR/PGPf/ziiy9+8pOfsCzrcDjef//9Q4cO1dfXPzn6oihKp9OBNsLtdgPFAteQRCIxGo1Pjg/BvDwSiXz88ccIghw+fLihoWGzXsFTwTDM7XZHIpFsNvvLX/6yUCh4vd6urq4jR47Mzc3l83mwp/tZPwcu71wuNzAw8NFHH8XjcVEUv/nNb7711ls2m41hmFgsBr6JoihwIfz617+enJwMhUKiKJ46deof//EfgfMTNILBYPD3v//9qVOn3nvvvePHj9+5c+d///d/19bWeJ6vr6//xje+8Y1vfMNoNG6fbgd5BeIBU0CVStXW1iaRSBobG3O5HGj2XC5Xe3v7+sAXTF3Onj0riqLdbl9feQQbH9va2sDeEK/X+9STAmAuIZFITpw4YbVac7lcpVJBURTsMGhtbVWpVKCiW63WN954Q6FQhEIhBEFaW1tdLtfu3bvVarXdblcoFC0tLX//93/PsqxGozGZTAqFgqKoo0eP2my2I0eOCIKg0+m6u7vr6uqeullYIpEAX1+lUtHr9UajkSAIk8l0+PBhr9fr8XgoigL7yjs7Ow0GQ319Pdhv8eabb9pstpaWFqfTaTQa5XI5y7Jg/o1hWGNjo06nK5VKDofjWaVNEIRerz969GhTUxN4ZPA5RVHAtVUqlUwmE+i3wVj329/+diQSoWnaZDI5nU6bzVZfX69QKGQymdfrBWaYzWawz8Pj8Zw7d85qtVosFrVavXv3bqlUunfvXrBg1d3d3draCnZduN3us2fPKpVKuVwul8tbW1v/9m//9vDhw5lMBkGQlpaW1tZWtVotkUgUCsUbb7wBhrINDQ2glTlw4ABY4eF53mQytbW1mUwmMBHyeDxgKU+j0dTW24aIG4IgyI9//OONvwOBvH6cP39eqVT+9Kc/3eA78CQpBFIlUDwQSJVA8UAgVQLFA4FUCRQPBFIlUDwQSJVA8UAgVQLFA4FUCRQPBFIlUDwQSJVA8UAgVQLFA4FUCRQPBFIlUDwQSJVA8UAgVQLFA4FUCRQPBFIlUDwQSJVA8UAgVQLFA4FUCRQPBFIlUDwQSJVA8UAgVQLFA4FUCRQPBFIlUDwQSJVA8UAgVQLFA4FUCRQPBFIlL5BiRBRFkDL61SSCBIHoEQRBUXTjO65/E0GQJ1OPPAbIOfOsa65f6kuvsyl86TOCMhf//0mm0EfY4LLgvy/0ssC91m8HbvFCRfH8b+1FL/hq3sgL8VziEUWxXC4vLS3dvn27o6PD6/WCTDhbatnk5GQgEACZ3+vr6zf4ZjAYHBkZKRQKGo3m8OHDG6RtKRQKIyMjoija7Xar1bqevgZQLBaTyeTQ0JBEIjly5IhKpXpq+p1NJBaLDQ8Pg5ynTU1NIB/WOrlczu/3f/bZZ36/H6S1ATgcjvb29pMnT5rN5qfmUvf5fEtLSw6Hw2azWSyW57EEJFceGhq6fv16MpmkaRpBkO7u7r179/b29j4rW+tjlMvlYDB4+/Ztt9u9a9eu9cyWVZPNZtfW1oaGhtxu9759+2qe/voxnlcAHMdFIpE7d+7I5XKXy/WcpfkygFShJpNJpVI9SzyiKDIMEw6Hh4eHc7mc1Wpta2ujKGo9MdZjgNy9oigSBAHSdD/230wmMzExQRBEb2+vXC7favHk8/mZmRmKoiqVypNpQMvlciQSGRgYCIfDEolkPRdysVjkOM7lcuE4DlJ8PkYsFpuZmUEQRKlUPo94QJ7Dqamp8fFxkCYRZOlbXFyUyWQymayurg7kt9q4M+E4LpFIPHjwoFKp1NXVPVa8VQBKYGhoiGXZrq4ukBv8Ja/5/IhfloG8lgmZXx5BEFKpVCwWS6fTIEF5JpPR6XTPEs+OA8MwpVJ5+vTpN99802w2g8zBN27cmJ2dHR4eJgjiqeJ5URKJxMOHD3//+997PJ4f/ehHRqMRFOCdO3cmJiYuXLhw6NCh/v5+qVRa29Tt241qxCOKIsdxS0tLs7OzFEXF4/GpqSlRFLVabUdHR3t7e11dXT6fDwQCU1NTer2+XC6Pjo5KJBKbzXbo0CGXy6VQKJLJZDgcDgQCTU1NTU1NOI4nk8nV1VWQdFKhUNy+ffvWrVtyuTwajUqlUo/H82R3B9Im0zTtdDpFUaQoam5uTiaTgeTMLwnP84lEYmxsjGEYDMOmpqZAjnWv1wsek2XZeDweCASKxaJUKp2bm8tmsyC59+7du0mSjEajMzMzCoXCYDB4PB4Mw/L5/OjoKMjTWiwWx8bGPv/8c57n3W43yFnrdDoftQFMORQKhclkslqtCoUCQZDGxkZQvNlsluO4R3MbvyiiKPI87/f7l5aWWltbd+3a1dzcDDK5IwjS2dmJoujdu3fj8XgoFDIYDOl0emxszOFwOBwOg8GAIEgul3v48CGO416v1+fz3b17F6RezufzfX19OI77/X6tVgv6/GQyiWHYgQMHWltbHQ5HPp9fW1ubmppqbW1tbm4mCKJQKIAiJUkSZHG+cePG0NBQKpVCUfTo0aNut5skyZd9tZtE9eJZXFy8cuWKWq2ORCL379+vVCparTYQCGAYZrVaM5nM1NTURx991NTUxHHczZs3QQZZkLCyrq4umUz6fL6BgQEURevr6zEMS6VSk5OT8XhcIpG43e7FxcXp6Wkcx41GY09Pj9lsfkw8wIxIJFIul5uamjAMK5VKS0tLZrPZ6/W+vGNDEIR0Oj0wMJDJZAiCuH//fjAYZFm2t7c3l8vZ7XaWZUFO+UwmY7Vah4eHo9GozWYTBMFisZjN5mg0OjAwYDabm5qa7Ha7VCrN5XJ3794lCAJF0WKxuLy8PDs7WyqV0ul0d3e32+1+TDxPRalUajQaFEV5nud5/mWelOd5mqZXV1cjkcjx48dBitj1/9bV1SEIMjU1BbRKkuTa2tqnn366d+9ekGUZQZBMJnP79m2CIAwGw9LS0vz8/OrqarFYpCiqra2tVCp9/vnnFouF4zifzxcMBgVBoGkawzCj0ZjL5RYWFi5duiSKosvlkkgkhUJhZWVlcHBQpVI5nc6VlZWZmZmVlRWO4wwGQ3t7+wb5WF89LzVsE0WxUCh0dHR873vfi8ViCwsLd+/enZubA60ySCBuNps7OzvPnTsXiUSWl5fn5+dlMpnD4dgg07JOp9u3b182m9XpdDqdbu/evfv27XtsMo0giCAI5XI5Go2yLNvW1qZQKBKJhM/ny+VypVJpPZX8ywN6nh/84AdKpTIcDt+/f398fHz//v0KhYJhmLGxMQRB9u7de/jwYUEQhoaGstns4ODg8ePHN7gmhmEtLS0qlSqRSEgkEo/Hc+LEiSenPU8lHA5Ho1G73W6xWF5yKFWpVNLpdC6X43ler9c/1jzhOC6TyTQaTT6fn5ubs9vtz7oOiqJSqXT//v06na5YLLa2th47dqy5uXl2dlYURb/fb7Va/+mf/onn+XA4PDIyMjk52dDQwLLssy4IEv0eOnSIoii5XN7e3v7WW2/V1dVtn24HeUnxgKTW9fX1Bw8eTCQSFEU9fPiQZdn1pPAg53Nra+vevXtjsZhCobh161YkEsnlchsUHGjGbDab2+02mUwul+upwzCGYXK5XLFYlMlkFotFqVSKokiSZLlcTqVSZrN5s8QDrt/Z2WmxWKLR6MrKSjAYZBiGJElQadRqdWtrK+jueJ6fm5ubn5/v7u7e4BlRFFWpVDzPOxwOiqI8Ho/FYgGjskcBDcT4+Hi5XNZoNGA0lUqlpFJpb2+vzWZ7SQeuKIqVSoVlWeBEecxBAp5Op9OVy+V8Ps9x3AaPg6KoXq+32+1Go9HpdNbX12s0GnBB0I10dnaSJBkMBv1+f6lUWl1d3cDtBJKog0uZTCa73V5fX69UKnekt+3pP5ZIHA6H3W4nCEKr1VosFqvVut5FEAShVqtbWlpaWloIgjCbzeVyeXBwsFAopFKpSqXykqbTNJ1KpWiaJkkSeKJwHKcoimGYaDSq1Wo3y22g0+kaGho0Gg14NKvVStM0eIsSiaSurs5ms3V0dKjVakEQdu3aFQ6H/X7/xg3EcyIIQqlUGhsb+/jjj9edXYcOHTp16lR9fb3JZFpfz9kipFKpVqvNZrPlcrm6K6Ao2tTUtGvXLo1GQ1EUz/P19fX5fH51dXXjFYjtz0uJB8MwjUbzLI+kRCJRKpVKpZKiqK14wZlMZn5+/saNG5FI5OLFiziO0zQdCoV6enqkUqnT6QSD8peHoiiDwfDUJQsMw9RqNegTMAzbYCxaHcDb9vWvf72rq0un04FBC8/zxWLx/PnzPT09R48e3ZzcnTwAAB/eSURBVG6rH48B+liNRrMNVzlfkpcdtoFW/3m0wfM8GCHwPP/UL7AsS9P0s/77KOuugtnZWRzHlUolx3E8z6MoarVaeZ4PBALpdNpgMGzKEFkqlcrl8qdW0McW+wVBYFm2UqlwHPekkIDZL9SEYxhGEERTU9OZM2dsNhsY1wWDwdHR0Vu3bmk0mt7eXolEUrV4MAyTyWTgDdI0zTDMo0NHQRAqlUo2m0UQRK/XP9l8gHdaqVQ2XhBbrx6gBBiGeVafzHHcc9aB7cAWrvNwHFcsFguFAk3TGo2mUqkUCoVCofDk1B9A03Q8Hv/SlSkEQXieB441n8939uzZ7u7uhoYGFEXBHa9duzYyMhIOh41G43Our1eNIAjZbBZ4DkiSBH1CsVikafpJ8YCakU6nX3L1UKPRmM1mcJENyvN5IAgC+AlwHE+lUrlc7tHpJc/z+Xze7/drNJqWlpYnp2SVSiWfzxeLxQ3UK4piPp/P5XKCIPA8zzBMNpt91qCdpulkMvnyQ/pXwxaKp1Kp5HK5SCQSjUaNRmMmk4lEImBpX6fTVSoVmqaDwWA0Gs1kMmC9yO/3G43GL70yy7KJRCKbzfI8b7VagUcBuG7lcrlarUZRdN0ftXUPCCxZWVmhaRosRjEMs7S0xPO8y+XSaDRgk0ssFpPL5eVyuVKphMPhjd1Wz0OhUEin06VSCUEQiqJeZswGejawcjAwMJDNZpVKpUqlAj32/Pz86OhoNpt1OBxgmQH8KhaLBYPBurq6bDYbDAaTyeTGPU8kEjEYDF1dXQzDpFKpZDIJXAhgghqPx6PRaDKZlEgkyWRyaWmpWCxW/USvkq3dYcDzfDQanZ+fBz7K1dVVk8nkdrs1Gg1YWAS1bWhoyGAwBIPBQqGg1WrBb3EcF0UxEomYzeZMJqNQKNbfEKiFxWJRqVSChnN9EyRBEEqlUqFQhMNhs9nc0tLyMmuIX4ooisViURCEubm5TCZTLpcXFxcJgqivrzcYDNls1mAw+P3+ubk5h8OBoujKygoYT4Kfg7qby+WCwWAikZDJZOsVdP36PM/H4/GZmZl4PA5cINFoNBAIyOVynU6nUCheRjzAqeXxeHK53NTU1MzMjMlkUqvVQDyTk5Og23E4HGazGUEQmUxmMpmSyeT4+LhKpSqVSuFwmKbp9b2bGIbhOA5ERRAEx3GiKOZyuZWVlbGxMY7jwuEwy7J6vd7lciEIQhCERCIJBoNDQ0Mej2dlZSWTyawP6sDVBEHIZDKrq6ugSdo+c6ctFA9FUTabLZfLffrpp9PT02q1urm5+e233969ezdBEHa7vb29vbe3d3h4+PLlyy0tLVartb29fb2iK5VKnucvXLiwsLBAkmRnZyd4fwiC0DS9uLjIsmxjY6PBYJDJZOBzDMPAJkuHwzEzM0OS5P79+ymKesntiRsglUq9Xm8ikfjiiy/m5+dpmm5paTlx4sSxY8d0Op1cLu/r64vH4wMDA3/961/b29sbGhpaW1sbGxvBzwmCMBqNg4ODgUBAFMVjx461t7c/en2e5wuFwvj4+KVLl6RSKag3Wq0WzIK6uroUCsXLVyawDK1UKu/cufPf//3fiUQC9JldXV0HDhw4cuSIy+UCLZfT6Tx9+vTHH3988eLF8+fP7969G2wABU0ejuMkSYIVi5mZmW9961vr+0VWVlYuXLhQLBYNBsN777136NAhsLGIYZivf/3r165du3Tpktvtbmxs9Hg8oVAIGEaSpEwmYxjmwYMHoVDogw8+2LVr12PtSw15XvEQBOF2u/v7+5ubm4Fzqb6+/mtf+1p9fT1YkyYIwmq19vX1Wa1W0LGAJba6ujqNRmMymTQaTV1dndfrNZlMYJ7qcDj6+vqMRuPa2prNZgNbgFmWNRgMOI7b7fb9+/dzHGe1Wk0m06NTf4qimpqabDYbSZLgauv/QlHU4XDs27fPaDSCpZ7nr1symcxoNB48eBA4IYD//cCBAxRFWa1WkiSB2V1dXU6n0263VyoVHMd1Op1SqfR6vWazmeO45ubmXbt2WSwWHMclEonL5Tp8+LBarQ6Hw2632+12d3V1gVUsiqKkUml7e3uhUAiHw42NjY/NheRyucfjeeutt4LBYC6XW/8clGRXV5fNZtsUPxuY+bS1tQE/B+hCEQRpa2vbvXs3WGBZv3Vzc/PRo0d1Ol06nW5sbGxpafF4PHq9Xq/XKxQKs9l87NixUCjEcZzJZKpUKiiKms1msJmY4zidTnfgwIH15U6r1Xr48GEcx0FF8ng8Ho8nnU4D1yKKojab7eTJk9lsViaT6XS6beVXRDeeoKMo+uMf//g///M/X+iiLMtGIpHBwcELFy58+OGHR44cUSqV26G3TaVSFy5cEEWxra2tubn5eeZXGxAMBsEOI7vd/p3vfGf7uIxv3Ljx4MGDtra21tbWpqammtgAll8HBwfPnz9/+PDhnp4esHutJsZUwUcfffS9733vP/7jP/75n//5Wd+pfYWGQHYoWzLnwTCMoiiXy7V//36r1bp9trIDz5IoipuyBERRlNlsBpspt9Qt8aKYTKaWlhabzfYyXuyXB8Mwk8nU09PjdrvVavV2GHpsLlsiHhzHDQbD/v379+zZA2Yd26RiKRSKo0ePIgiyKSbp9XqtVtvW1gZ8Vpth4OYAdvjXttjBvri2traWlhbs/6iVMVvEVr1yUJ+2VZVC/s+qTbwa2FC3WRfcLLaPVdvHkq3gdWsMIJBXBhQPBFIlUDwQSJVA8UAgVQLFA4FUCRQPBFIlUDwQSJVA8UAgVQLFA4FUCRQPBFIlz7VXheO42dlZn8/n8/k4jlOr1W1tbXK5vFKpzMzMpFIpBEG8Xi843rS8vOz3+xEEsdlsXq8XQZB0Ou3z+crlslwu93q9Go1GEASfzxeNRhEEaWxsBMH+1tbW5ubmEAQxGo1tbW0gfuTMzEyhUAC7pMABzLm5ubW1NQRBPB5PQ0MDgiDRaNTn8wmCoNVqvV4vRVHlctnn86XTaRRFvV6v1WpFEGRpaSkQCCAIYrfbW1tbEQRJpVIzMzOVSgUcyFGpVCCwZTweRxCkubkZxO9cXV1dWFhAEATEIsVxPJfLzczMlEolEBUWnGjy+XzhcBhBkPr6ehBrMxwO+3w+BEH0er3X6yVJslQq+Xy+bDYL4tOC432Li4srKysIgjidzubmZgRBEonEzMwMx3EqlQrEc2RZdmZmJplMIgjS2toKDnIHAoGlpSUEQaxWq9frRVE0k8n4fD6apimKAsksRFH0+XyRSOTRog6FQrOzswiCGAyGtrY2qVRaKBR8Pl8+nwfH+8Bhjfn5+WAwiCAIOKaGIEgsFvP5fDzPazQaEFOfYZiZmZl0Oo0gSFtbGyhqv9+/vLz8WFH7fD4QYMTr9arVap7nfT5fLBZDEKSpqQkcLA0Gg/Pz88j/7W3leT6bzS4vL9M0LZPJwIm9dDodCATAOwK7+NLpdCgUArXOaDT29vaCSMjLy8uFQgHDsL1793q9XhCUtEqhPI3nFY/f779x48bly5dZlrVarf39/QaDoVgsXr58GdTI06dP7969G0GQu3fvDg4OIgjS0dEBoh+urKxcuXIln89rtdr+/n6Hw8Hz/OXLl8H7O3r06L59+xAEGR0dvXbtGnjHpVJJJpPFYrErV67E43GZTHbmzBkglc8//xwE6dy3bx/Y5TkzM3PlyhVBEBwOx5kzZzQaTS6Xu3z5cjAYRFG0v78fHM8cGBi4d+8egiCdnZ3gsJff779y5UqpVDIYDGfOnLFYLAzDXLlyBUjl+PHjvb29CIIMDw/fuHEDQZCWlhYQ7zwcDl++fDmdTisUijNnzng8HgRBPv3008nJSQRBDh06dOjQIQRBJicnP/30UwRB3G73mTNnwIu/fPkyyHrQ398PKtaNGzeGh4cRBOnp6enr60MQZGFh4cqVKwzDWCyW/v5+o9FYKpWuXLkC6sfJkye7uroQBLl3797AwACCIG1tbQzDoCgaDAYvX76cy+U0Gk1/f7/T6RQE4cqVKyBpwpEjR/bv348gCIiRjSBIfX39mTNnQACJK1euxGIxkiTPnDkDpHLt2rXR0VEEQfbu3Xvs2DEEQWZnZy9fvszzvN1u7+/v1+l0+Xz+ypUrQPz9/f0dHR0IggwODt69exdBkF27dn39619HECQQCFy+fLlYLOr1+v7+fpvNxrLs5cuXgVS+9rWv7dmzB0GQkZGR69evgzpw+vTpSqWytrZ29+5dEFyBZVmz2byysnLv3j3wjk6ePCkIQiAQmJiYuHPnDvghQRA0TYP4tfF4HMdxlmU1Go3dbt9c8TzXYbif/OQniUQimUwmEglBEEiSNBqNUqkUhEIHR3aNRiPYAJ/NZkE7pFQqQQNWLpcTiQTHcVKp1Gg0kiQpimIikQBxHnQ6HQiwls/nQcsql8uNRiOGYZVKJZFIgAOb66H7k8lkPp9HEESj0YAmv1gsJhIJURTBUVCJRAJyXQCFrBuWyWRAlhuVSgU6MZBag+d5cByaIAhBEBKJBIitsR5+NpfLgd5VoVAYjUYURRmGSSQSLMviOG4ymcA58HXD1o8lFwoFEBueoiij0QjeYiKRABXdaDSCeDTpdBqEd1Kr1SB4TalUeqyoBUGIx+OgqA0GAzhzukFRg3CbwLBEIgGOQz9PUYMo0uCoM4in89SiBmd4JRLJU+vABkX91DrwZFHL5XKDwQASQ2UyGfBEVquVIAjwCXhHBoPBYDDQNJ3P58Ed5XK5zWYD8ZUymQw4ygrimL7QsYjnOQz3/2XeehYIgvz4xz/e+DsQyOvH+fPnFQrFT3/60w2+Ax0GEEiVQPFAIFUCxQOBVAkUDwRSJVA8EEiVQPFAIFUCxQOBVAkUDwRSJVA8EEiVQPFAIFUCxQOBVAkUDwRSJbUMhwvyLg4NDY2NjWUyGZvNtnv37o6OjvUkVpsFyDsLjrV0dnaaTKZXk+siFApNTk5OTk4mEgmdTrdnz57u7m6VSrVxEsIqSKVS4PyMUqmsq6t7+acDyUMfPHgwPj4eDocNBkNLS0tvb6/Van2Nw+e+KDUTD0iFOzs7C87/JJNJp9OZy+VAUkS5XL6JQcoFQSiXy7OzsxMTE1arVavVbrV4BEEAKYdv3bo1MjISi8UMBgNImdra2rrpuQGz2azP5xNF0Ww2OxyOl3w6URQLhUIoFBoeHr5582YoFDKZTLFYDKRbNBgM2yRsf82pmXjK5fLS0tJHH31ks9l++MMfGgyGQCDw8OHDyclJDMM6Ozs3vXl+lTAMMzU1NT09nc1mP/zwQ5vNlkgkfD7fhQsX/u7v/q6lpQWcTdqecBy3srLy17/+VSKRnDt3rqWlZW1tbXp6enR0lOO448ePw84HUJs5jyiK5XI5m80mk0mNRtPV1dXb29vS0qLX66PR6PLycqVSeTIV+w4CZK4tFovg5HZPT09nZ6dMJltbW4vFYuDM3PZEFEWO47LZbCAQoCiqo6Oju7u7vb3d4XBEIpHFxcVSqcTzfK3N3BbUzGEAUqvLZDK9Xg9Oier1+vr6+nw+v7a2Vi6Xd7R4eJ7PZDIoijY1NYHMvmazWalUCoKQTCYfTTC6DWFZlmGYcrmsVqtBbjK9Xl9XV5fP50OhUKFQWM9W/RWnZuKhaRqIhyRJkOcZ6IdhmEwmwzDMzm3ewGw7l8vxPA+OHIM03Wq1Wq1WF4tFcCh6eyKKIk3TIDs8SZJyuRwYr1QqwTHyfD4PxQOozZxHFMVSqVQsFjEMk0gkYAwtkUgoiuI4rlwucxwnbhhcYTvD8zwYlGIYJpfLJRIJSINFEARJkpVKpVKp1NrGZwJG1KVSCcQzACkxcRwHDZwgCJVKZee2a5tLzRwG+Xw+l8vtXIVsABBPOp1++bSnrx7Q8xQKhVKpBHuYjamZeBQKhVKpfC2dnhiGkSSpVqt3olcKRVEwWqMoartlxdxu1Fg8oigKggB8A2ApE8MwgiC2Tw7gKsBxnCRJrVYLJj88z4PH5DiOZdltmKr1UVAUpShKoVCQJImi6Lrx4A8wzH79UvNWR21KAUVRmUwGYnCVy2WWZcE6ZiqVkslkGo1GJpPt3DeE47hMJgNRwkCUNjBVyOVyuVwOtBq1tvGZAPHIZDIURcHkRxAElmULhQIInrYVOyR2KDWroBRFrQewS6VSDMOAMKpKpdJut5MkuRPHPAAwwwZxD/1+fzabBe1CoVAQRXE9wN+2RSqVAi9ooVCIxWIsy2YymWAwqFAoLBaLUqmE4gHUZvwAeh6FQiGVStPp9NLSEk3Tq6uroVCovb3d7Xbv6J4HQRAQsDMUCi0uLq6uruI4HgqFSqWSRqMxmUzbXDwSiQTERs3n80tLSyqVamVlJRAIGAwGj8ejUCi287DzVVKzUpDJZA0NDe+///6DBw9+9rOf5fN5g8HQ3Ny8a9eu1tbWndvtAEiS7OjoAPsMfv3rX4M9e93d3e+++67L5drOXjgURSUSidvtPnfu3M2bN//0pz/94he/UKvVbrf7wIEDu3bt2umvZhOpmXhwHDcYDL29vcViMZfLJZNJl8vV29vb0NAA4jXvaMDTNTY2ZjIZQRDAxtCOjo7Ozk6tVrvN6x+GYVqttq2tLR6P53K51dVVi8UCGjWLxbJzHTmbTi37X5IkzWbz3/zN35w7d04URRRFMQzb0aO1x3C73U6n8+2333706XZE5ZNIJEqlsr+///Tp0zvO+FdGjQevYG69zVviqtnpT7ejjX8FfCVmfmAcbzKZwHz3dercADKZzGQyiaKo1Wpfv6fbtnwlxIPjuEKhOHDgQE9PD3Dx1dqiTcZoNIJ0WmB9ttbmfFX4SogHRVEURbfz0uRLIpVKX78WYfsDu3gIpEqgeCCQKqnlsI3jOJB41e/3F4tFnU7n8XjcbjfIm7mJgE2Za2tr6XTa4/FoNJpXuUZO03QymVxZWbFarU6ncys2VubzeZAdWiaTmc3mTXw6hmFisVixWOR53uVybfO9Ea+YWoqHYZhoNPrxxx+fP39+dXV1165dYM1n08XD83yxWLx3797ExMT777/f0tLyysQjimImkxkfH//Tn/50/Pjxs2fPKpXKTRdPIpG4e/cuiJ6zuU1DoVAYGxsLBAIMw7zzzjtQPI9S4+g5f/3rX2Uy2Q9/+EOKorLZbDwen5iYQBCkqanpNdhARdN0Op2+ePHi0NAQyJ5da4teDL/fPzQ09Lvf/Y6iqJ6enlqbs+2oZfScaDQ6Pj6uUqlOnz79wQcfHDx4EMfxQCCwuLjIsuyOPmQqCEKhUFheXh4cHJydnQV7k3fQE5VKpUAgMD09PTk5CcIA1dqi7Ugte55KpUJRlMFgMJvN4I/GxsaVlZVgMFgul6VS6c7tfFiWDQaD169f/8Mf/nDkyJGvfe1ro6OjryZM6aYQCoWuXr0aCoVomj579izclfNUaiwemUxGURRFUWAd02Qyzc3NJZNJhmEUCkWtbHt5wMbQnp4egiDsdnsul5uamqq1US+ATqfr7u5ubm4ulUq5XC6dTu+4MecroJbRc2ialkqlBEGA+DIEQajV6kqlUigUdnrQQ7AbyGQyHTx4MBwOj46O7qxdMwaDAWxZSKVSg4OD2Wy21hZtR2r2RkH0nB2tEMhXnJqJB8TBgINpyM6lZuJRqVRqtRqIZ90NBf6AioLsCGoZPYckSRATGbhxaZoG0XO0Wq1MJoMnSSDbnJr1POuhp/L5PAh/DOKIg5joIL5zrWyDQJ6HGoeeAr1NLBYrlUqJRGJpaUmtVjudTtjzQLY/NQs9RZKk2+0+c+ZMMBj81a9+JQgChmFKpdLr9b7KvWcQSNXUrOchCMLhcJw8eVKn083Pzw8MDEQikYaGhtbWVpfL9Tp1O1KpVKVSORwOEDdnZ7lDcBxXq9UGgwHkSqm1OduL2kfPee+99/r6+sBWHa1Wu+lbqmuORqPp7Ox0u90qlQqku6m1RS+AQqHo6upqa2sTRfH1ezUvSS3FA7IJ2Gw2m81WQzO2GnBGeodu5pdIJFAzz+KrMrVAURSEYH6dBoTrgCxUoijCueKr5CtR1uvRc9rb20EU+VpbtMmYTCawFY0kydfv6bYtXwnxgGiXTqez1oZsFXK5XC6X19qKrxw7afIKgWwroHggkCrZFsM2juNANgEQX3zTT1yCxIDZbJamaZ1O98qS/5RKpUwmk8lkGIYhCMJgMOh0OpBWenNvxDAMOCkNCnATr89xXLFYZBgGxPKFE6pH2RbiyefzN2/eLJVKRqOxu7vbarVu7vV5ni+VSvfu3Zufnz99+nRdXR1FUZt7i6eysrLyxRdffPbZZ6urqzab7Z133unv7zeZTJteBePx+NjYmCiKBoOhu7t7E5+uWCyOjo6GQqFKpdLX1+d2uzfryq8BtRdPIBAYHR29ePGiSqV64403tuK4ryiKPM9ns9loNFoul1/BCTyWZUOh0Nzc3PLycl1dncfjwTAsGo3euHHj6NGjNpttc6PjsiybzWZFUSRJchOfLhKJTE1N/fnPfxYEob6+vlKpbNaVXw9qNucRRZHjuEKhMD09fe3atVu3bi0tLdXKmE2HYRifz7ewsFAul997771/+7d/+/a3vy2K4tWrV0F4k1ob+CWAvnphYWFgYODy5cszMzO1tmg7UrOeh+f5QCBw/fr1VCqlVqv7+vrMZnOtjNl0BEHIZDIoira0tOj1eoVCYbValUolx3GJRCKbzapUqlrbuBGhUOjevXuBQKBYLL755psymazWFm1HajlsAynXHQ6H0+nUaDSvTZx/kHsdjKOcTidwgahUKpVKRRBENpvN5XK1tvFLwHGcIAiLxaLValEUBXnka23UtqNm4pFIJB6PByxcJhKJixcvvjaR9QRBKJfLQCFgMzKGYSA2kFqtLhaLhUKh1jZ+CTab7a233hJFMZVK3bt3j6ZpKJ4nqWXPAxK2IQiy4zbqbwzHceVyOZ1OS6VSkBpo/V8oiu6IuKEgISSCIDBIywbU3tv2WgLyMsBq93oDxbP5gLkcTA/62gPf7uYDxANcIJlMBkQ/5TiuVCoVi0UQXrjWNkI2ASiezQe4BzQaDVgYpWma53mapnO5XLFYBG63WtsI2QSgeLYEHMe1Wq0gCHNzc6lUqlgsRqPRQqEgkUgMBgM8m/l6AOc8W4JUKq2rq8tms2tra7du3RoZGQH9T3d3t91uh2dvXg+geLYEkiQ7OjpYlp2fn//Vr361uLjodru/+93vvvvuu1arFe5Nfj3YFuJRqVTHjh3jOI6iKL1eX2tzNg232/3uu+/29vbm83mFQtHY2GgymXZQiisEQRQKRXd3d1NTkyAIFoul1uZsL7aFeGQyWXNzc62t2Hz0er1er+/q6qq1IdVDkuRrfHz9JYEOAwikSrZFz7PV4DhOUdTu3bstFsumn6XZDuh0us7OTgRB5HL56/d025avhHgwDJPJZB0dHR0dHbW2ZUvQarVarbbWVnzlgMM2CKRKoHggkCqB4oFAqgSKBwKpkm3hMKhUKrFYjOM4kiRBXLXNvT4INpJIJPL5vNVqVSgUrzLcO8MwuVwuGo3q9XqTybQVx8tomk6n0wiCEASh0+k28elYlk2n0+Vymed5i8UCNxY9yrboefL5/I0bN65evXr//v1kMrnp1wfHAe7evfuHP/whEAgwDLPpt9iATCYzPj7+i1/84u7du6VSief5Tb9FPB6/c+fOnTt3pqamNvfpCoXC2NjY559/fuXKlWg0uolXfg2ofc+zsLDw4MGDP//5z3q9vq+vb4uCqgmCwDAMCGTxyg5Cg0gGn3/++dDQ0Orqamdn5xbdmud5ENSzUqls4i2CweDo6Ogf//hHHMfb2tq2QvY7mlrGbSuXy9FodGpq6v79+9PT07FYrFbGbDqiKDIME4lExsbGHjx4MDU1VSwWX0Gwxc2CYZhEIjE7Ozs8PDwyMrK2tlZri7YjNet5OI4LBAKXL18uFAogbpvRaKyVMZsOy7LBYPDWrVt/+ctfOjo6jh07NjMzs4PW/sPh8M2bN1dXV4vF4tmzZ3eQ5a+SmokHwzCFQuHxeFAUFQTB7/e/TjnbMAyjKMrlcu3fv7+pqYlhGL/fv4PigVAUZbfbVSpVuVwGDg8YeupJaiYeHMedTifYsRuPx1Op1PaPZvb8SCQSu91ut9tPnjwZDodHR0d3VjAQi8UCDiCkUqnBwcFisQjF8yQ76Y1CINsKKB4IpEqgeCCQKoHigUCqBIoHAqkSKB4IpEqgeCCQKqn93jbk/45J8zwPUtnU2pxNBkTfValUMplsB62TAlAUJQiCoigMw16nVexNYVuIB8RtA+LR6XS1NmeT0Wq1nZ2dFotFr9fL5fKdVQWVSmV3d3drayuM2/Yk20I8BEG4XK5aW7FVkCRpMplMJlOtDakGqVT6OuWK3VxetzESBPLK2BY9z1aD47hcLt+7d29DQ4PL5dpZAW+fB6PRuG/fPgRBKIp6/Z5u2/KVEA+GYSRJNjU11dqQrQLm/KkJcNgGgVQJFA8EUiVQPBBIlUDxQCBVAsUDgVQJFA8EUiVQPBBIlUDxQCBVAsUDgVQJFA8EUiVQPBBIlUDxQCBVAsUDgVQJFA8EUiVQPBBIlUDxQCBVAsUDgVQJFA8EUiVQPBBIlUDxQCBVAsUDgVQJFA8EUiVQPBBIlUDxQCBVAsUDgVQJFA8EUiVQPBBIlUDxQCBVAsUDgVTJl2dJoGk6kUi8AlMgkO1DPp8XRXHj73y5eK5cuRIMBjfJJAhkZxAOhxmG2fg7XyKeb37zm5tnDwSyY2hoaGhoaNg4pxO6cd9UKpU22yoIZMdAEIRE8swO5kvEA4FAngX0tkEgVQLFA4FUCRQPBFIlUDwQSJVA8UAgVQLFA4FUCRQPBFIlUDwQSJX8P2pAJJ6qjGfaAAAAAElFTkSuQmCC;" vertex="1" parent="1">
                    <mxGeometry x="-183" y="585" width="276" height="247" as="geometry"/>
                </mxCell>
            </root>
        </mxGraphModel>
    </diagram>
</mxfile>